# xmcd
#
# Track frame offsets:
#	150
#	17610
#	36620
#	53572
#	68475
#	88625
#	105307
#	125927
#	138455
#	159912
#	172255
#	192950
#	211125
#	230977
#
# Disc length: 3301 seconds
#
# Revision: 13
# Processed by: cddbd v1.5.2PL0 Copyright (c) Steve Scherf et al.
# Submitted via: EZCDAudioConverter 2.4.0.1
#
DISCID=c40ce30e
DTITLE=Leonardo - Quero Colo
DYEAR=2000
DGENRE=Sertanejo
TTITLE0=Fiquei Sozinho
TTITLE1=Longe De Você
TTITLE2=Não Me Jogue Fora
TTITLE3=Água De Coco
TTITLE4=Como Esquecer De Você
TTITLE5=Feitiço
TTITLE6=Maior Amor Do Mundo
TTITLE7=Parei Na Contramão
TTITLE8=Não Fui Eu
TTITLE9=Rola Pinga
TTITLE10=Eu Gosto Sim
TTITLE11=Quero Colo
TTITLE12=Deixaria Tudo (Dejaria Todo)
TTITLE13=Fonte De Desejos
EXTD=
EXTT0=
EXTT1=
EXTT2=
EXTT3=
EXTT4=
EXTT5=
EXTT6=
EXTT7=
EXTT8=
EXTT9=
EXTT10=
EXTT11=
EXTT12=
EXTT13=
PLAYORDER=
